# xmcd
#
# Track frame offsets:
#	150
#	14093
#	32760
#	50755
#	62670
#	78105
#	99915
#	107683
#	126435
#	148438
#	169950
#	185905
#	201045
#	213305
# Disc length: 2959 seconds
# Revision: 1
# Processed by: cddbd v1.5.1PL2 Copyright (c) Steve Scherf et al.
#
# Submitted via: libkcddb 0.21
#
DISCID=d30b8d0e
DTITLE=Justyna and Sega Band - Słońca blask
DYEAR=1995
DGENRE=Contemporary Christian
TTITLE0=Niebo nad nami
TTITLE1=My Lord
TTITLE2=Magdalena
TTITLE3=Psalm
TTITLE4=Blues for Jesus
TTITLE5=Na wieki
TTITLE6=Jestem przy Tobie
TTITLE7=Na co czekam
TTITLE8=Słońca blask
TTITLE9=Nie ma już nic
TTITLE10=Pralka
TTITLE11=Szare dni
TTITLE12=Miłość nad górami
TTITLE13=Jest niebo
EXTD=
EXTT0=
EXTT1=
EXTT2=
EXTT3=
EXTT4=
EXTT5=
EXTT6=
EXTT7=
EXTT8=
EXTT9=
EXTT10=
EXTT11=
EXTT12=
EXTT13=
PLAYORDER=
